<svg viewBox="0 0 64 64">
  <circle cx="32" cy="32" r="32" fill="#F7931A"/>
  <path d="M44.4 25.9c.6-4-2.4-6.2-6.6-7.6l1.3-5.4-3.3-.8-1.3 5.2c-.9-.2-1.7-.4-2.6-.6l1.3-5.2-3.3-.8-1.3 5.4c-.7-.2-1.4-.3-2.1-.5l0 0-4.5-1.1-.9 3.5s2.4.6 2.4.6c1.3.3 1.6 1.2 1.5 1.9l-1.5 6.2c.1 0 .2.1.4.1-.1 0-.2-.1-.4-.1l-2.2 8.7c-.2.4-.6 1.1-1.6.8 0 0-2.4-.6-2.4-.6l-1.6 3.7 4.3 1.1c.8.2 1.6.4 2.3.6l-1.4 5.5 3.3.8 1.3-5.4c.9.2 1.8.5 2.6.7l-1.3 5.3 3.3.8 1.4-5.5c5.6 1.1 9.9.6 11.7-4.4 1.4-4.1-.1-6.4-3-7.9 2.1-.5 3.7-1.9 4.1-4.8zm-7.4 10.4c-1 4.1-7.9 1.9-10.1 1.3l1.8-7.2c2.2.6 9.4 1.7 8.3 5.9zm1-10.6c-.9 3.7-6.6 1.8-8.4 1.4l1.6-6.6c1.8.4 7.7 1.2 6.8 5.2z" fill="white"/>
</svg>
